<svg width="219" height="137" viewBox="0 0 219 137" fill="none" xmlns="http://www.w3.org/2000/svg">
<path d="M218.214 94.3054C218.214 95.041 218.199 95.8138 218.162 96.6164C218.155 96.765 218.147 96.921 218.14 97.0771C218.11 97.6864 218.066 98.3106 218.013 98.9497C217.999 99.0983 217.991 99.2395 217.976 99.3881C217.961 99.5664 217.947 99.7448 217.924 99.9231C217.85 100.681 217.761 101.454 217.664 102.234C217.642 102.39 217.62 102.554 217.597 102.71C217.493 103.468 217.382 104.24 217.248 105.021C217.218 105.177 217.196 105.34 217.166 105.504C217.033 106.269 216.891 107.042 216.735 107.815C216.706 107.978 216.669 108.142 216.631 108.305C216.505 108.914 216.364 109.524 216.223 110.14C216.148 110.46 216.067 110.78 215.985 111.099C215.792 111.872 215.584 112.645 215.361 113.41C215.316 113.574 215.264 113.73 215.22 113.886C214.989 114.666 214.744 115.439 214.476 116.197C214.424 116.36 214.365 116.516 214.306 116.68C214.075 117.326 213.837 117.965 213.585 118.589C213.451 118.931 213.31 119.273 213.161 119.607C212.819 120.402 212.463 121.175 212.084 121.918C212.002 122.082 211.92 122.238 211.838 122.401C211.407 123.211 210.962 123.984 210.486 124.712C210.389 124.868 210.285 125.017 210.181 125.166C209.609 126.005 209 126.778 208.361 127.469C208.153 127.692 207.945 127.908 207.729 128.116C206.704 129.111 205.597 129.892 204.4 130.419C204.311 130.456 204.229 130.494 204.14 130.531C204.118 130.538 204.096 130.546 204.073 130.56C203.902 130.627 203.724 130.694 203.553 130.746L194.309 130.761L168.167 130.798L135.724 130.605L123.04 130.531L97.9461 130.382L22.1441 129.929C22.1441 129.929 8.08496 121.606 8.08496 107.161C8.08496 106.96 8.08496 106.759 8.09239 106.559C8.30046 98.8382 10.3662 84.1251 28.1556 76.4862C29.4338 75.9364 30.7936 75.4236 32.2352 74.9555C33.5281 74.5319 34.888 74.1455 36.3221 73.7963C38.1427 73.3504 40.0821 72.964 42.1479 72.6519C42.3485 72.6222 42.5566 72.5925 42.7572 72.5628C43.7455 72.4216 44.6893 72.2507 45.5958 72.05C69.5231 66.9079 66.6474 44.6971 98.2061 43.1441C101.097 43.0029 104.277 43.0326 107.792 43.263C113.187 43.6197 117.638 44.9349 121.606 46.488C125.812 48.1227 129.483 50.0102 133.198 51.2957L133.451 51.3849C137.092 52.6184 140.785 53.25 145.05 52.4698C145.258 52.4326 145.466 52.388 145.674 52.3435C150.4 51.3403 154.822 50.5972 158.946 50.0993C159.035 50.0919 159.117 50.077 159.198 50.0696C169.111 48.8955 177.337 49.1185 184.173 50.4337C184.263 50.4486 184.344 50.4635 184.426 50.4857C187.376 51.0653 190.074 51.8456 192.526 52.8116C193.209 53.0791 193.878 53.3615 194.525 53.6587C194.547 53.6661 194.562 53.6736 194.584 53.6884C194.696 53.7404 194.8 53.785 194.911 53.8371C195.015 53.8816 195.119 53.9337 195.223 53.9857C195.231 53.9931 195.245 53.9931 195.253 54.0005C196.055 54.3869 196.828 54.7882 197.571 55.2118C198.456 55.7171 199.303 56.2446 200.113 56.802C200.343 56.958 200.573 57.1215 200.796 57.285C201.814 58.0206 202.773 58.7934 203.679 59.6108C203.858 59.7743 204.036 59.9303 204.207 60.0938C205.002 60.8369 205.753 61.6097 206.459 62.4122C206.644 62.6203 206.815 62.8209 206.994 63.029C207.625 63.7795 208.227 64.5523 208.799 65.3474C208.918 65.5109 209.03 65.6669 209.141 65.8304C209.669 66.5884 210.159 67.3612 210.627 68.1488C210.731 68.3197 210.828 68.4907 210.932 68.6616C211.355 69.4047 211.764 70.1552 212.143 70.9205C212.284 71.2029 212.426 71.4927 212.559 71.7825C212.797 72.2804 213.027 72.7857 213.243 73.2984C213.429 73.722 213.607 74.153 213.778 74.5839C214.083 75.3493 214.372 76.1221 214.647 76.9024C214.707 77.0658 214.759 77.2219 214.811 77.3854C214.997 77.9278 215.175 78.4703 215.338 79.0127C215.413 79.2431 215.48 79.4734 215.546 79.7038C215.591 79.8673 215.643 80.0307 215.688 80.1942C215.725 80.3354 215.769 80.4766 215.807 80.6178C215.97 81.1825 216.119 81.7547 216.267 82.3269C216.282 82.3863 216.297 82.4532 216.312 82.5126C216.349 82.6761 216.394 82.8322 216.431 82.9956C216.624 83.7685 216.802 84.5338 216.973 85.3141C217.01 85.4701 217.04 85.6336 217.077 85.7896C217.241 86.5625 217.397 87.3353 217.538 88.1081C217.568 88.2715 217.597 88.4276 217.627 88.5911C217.716 89.0666 217.798 89.5422 217.88 90.0178C217.909 90.211 217.947 90.4191 217.969 90.6345C217.976 90.7237 217.991 90.8129 217.999 90.9095C218.021 91.1101 218.043 91.3182 218.058 91.5262C218.118 92.2322 218.155 93.005 218.162 93.8372C218.214 93.9859 218.214 94.1493 218.214 94.3054Z" fill="#EBF3FA"/>
<path d="M218.006 90.6196V98.957C217.991 99.1056 217.984 99.2468 217.969 99.3954C217.954 99.5737 217.939 99.7521 217.917 99.9304C217.843 100.688 217.753 101.461 217.657 102.241C217.635 102.397 217.612 102.561 217.59 102.717C217.486 103.475 217.374 104.248 217.241 105.028C217.211 105.184 217.189 105.347 217.159 105.511C217.025 106.276 216.884 107.049 216.728 107.822C216.698 107.985 216.661 108.149 216.624 108.312C216.498 108.922 216.356 109.531 216.215 110.148C216.141 110.467 216.059 110.787 215.977 111.106C215.784 111.879 215.576 112.652 215.353 113.417C215.309 113.581 215.257 113.737 215.212 113.893C214.982 114.673 214.737 115.446 214.469 116.204C214.417 116.367 214.358 116.523 214.298 116.687C214.068 117.333 213.83 117.972 213.577 118.597C213.444 118.938 213.302 119.28 213.154 119.615C212.812 120.41 212.455 121.183 212.076 121.926C211.995 122.089 211.913 122.245 211.831 122.409C211.4 123.219 210.954 123.991 210.479 124.72C210.382 124.876 210.278 125.024 210.174 125.173C209.602 126.013 208.992 126.785 208.353 127.477C208.145 127.699 207.937 127.915 207.722 128.123C206.696 129.119 205.589 129.899 204.393 130.427C204.304 130.464 204.222 130.501 204.133 130.538C204.11 130.545 204.088 130.553 204.066 130.568L135.71 130.612L123.025 130.538L97.9312 130.389L22.1441 129.929C22.1441 129.929 8.08496 121.606 8.08496 107.161C8.08496 106.96 8.08496 106.759 8.09239 106.559C8.30046 98.8381 10.3662 84.125 28.1556 76.4861V83.434H32.2352V74.9628C33.5281 74.5392 34.888 74.1528 36.3221 73.8036C38.1427 73.3577 40.0821 72.9713 42.1479 72.6592C42.3485 72.6295 42.5566 72.5998 42.7572 72.5701C43.7455 72.4289 44.6893 72.258 45.5958 72.0573V82.3788H50.1063V79.9638L55.4268 79.986V76.0774H56.4969V75.3046H56.6381V76.0774H60.7473H61.5721V75.3046H61.7133V76.0774H62.7016V83.8501H69.0401V86.711H72.5623V85.0539H75.8319V78.4627H77.4593V75.3864H77.7045V78.4627H81.6057V72.6964H81.9921V78.4627H84.578V78.381H84.5706V77.6528H84.578V76.9617H84.5706V75.8099H84.578V75.0743H84.5706V73.9225H84.578V73.1868H84.5706V72.0351H84.578V71.2325H84.5706V70.0807H84.578V69.0701H84.5706V67.9184H84.578V67.153H85.3434V66.291H85.4697V67.153H91.1691V66.291H91.2955V67.153H92.3358V73.1794L93.0714 73.1868V73.1794H93.064V72.0276H93.0714V71.2325H93.064V70.0807H93.0714V69.2856H93.064V68.1339H93.0714H99.9821H101.171C101.23 68.1636 101.297 68.1933 101.357 68.223V74.7993H106.41V83.4414H110.489V67.4651H111.381V66.3505H111.537V67.4651H114.762V66.3505H114.926V67.4651H119.488V66.3505H119.652V67.4651H122.527V66.3505H122.683V67.4651H123.865V82.3788H128.375V79.9638L133.696 79.986V76.0774H134.766V75.3046H134.907V76.0774H139.016H139.834V75.3046H139.975V76.0774H140.963V83.8501H147.302V86.711H150.824V85.0539H154.093V78.4627H155.721V75.3864H155.966V78.4627H159.867V72.6964H160.254V78.4627H162.84V78.381H162.832V77.6528H162.84V76.9617H162.832V75.8099H162.84V75.0743H162.832V73.9225H162.84V73.1868H162.832V72.0351H162.84V71.2325H162.832V70.0807H162.84V69.0701H162.832V67.9184H162.84V67.153H163.612V66.291H163.739V67.153H169.438V66.291H169.564V67.153H170.605V73.1794L171.326 73.1868H171.333V73.1794H171.326V72.0276H171.333V71.2325H171.326V70.0807H171.333V69.2856H171.326V68.1339H171.333H178.244H179.433C179.492 68.1636 179.559 68.1933 179.618 68.223V74.7993H188.097V83.4414H192.176V67.4651H193.061V66.3505H193.224V67.4651H196.449V66.3505H196.605V67.4651H201.168V66.3505H201.324V67.4651H205.537V82.3788H210.048V79.9638L215.368 79.986V79.0052C215.442 79.2355 215.509 79.4659 215.576 79.6962C215.621 79.8597 215.673 80.0232 215.717 80.1867C215.755 80.3279 215.799 80.4691 215.836 80.6102C216 81.175 216.148 81.7472 216.297 82.3193C216.312 82.3788 216.327 82.4457 216.342 82.5051C216.379 82.6686 216.423 82.8246 216.46 82.9881C216.654 83.7609 216.832 84.5263 217.003 85.3065C217.04 85.4626 217.07 85.626 217.107 85.7821C217.27 86.5549 217.426 87.3277 217.568 88.1005C217.597 88.264 217.627 88.42 217.657 88.5835C217.746 89.0591 217.828 89.5347 217.909 90.0102C217.954 90.196 217.984 90.4041 218.006 90.6196Z" fill="#D5E5FB"/>
<path d="M123.857 67.4727H113.655V69.9991H123.857V67.4727Z" fill="#E2EEFD"/>
<path d="M123.857 71.3594H113.655V73.8859H123.857V71.3594Z" fill="#E2EEFD"/>
<path d="M123.857 75.335H113.655V77.8614H123.857V75.335Z" fill="#E2EEFD"/>
<path d="M123.857 79.3691H113.655V81.8956H123.857V79.3691Z" fill="#E2EEFD"/>
<path d="M123.857 83.2637H113.655V85.7902H123.857V83.2637Z" fill="#E2EEFD"/>
<path d="M167.595 67.1533H162.839V68.6915H167.595V67.1533Z" fill="#E2EEFD"/>
<path d="M167.595 69.5166H162.839V71.0548H167.595V69.5166Z" fill="#E2EEFD"/>
<path d="M167.595 71.9316H162.839V73.4698H167.595V71.9316Z" fill="#E2EEFD"/>
<path d="M167.595 74.3838H162.839V75.922H167.595V74.3838Z" fill="#E2EEFD"/>
<path d="M167.595 76.7461H162.839V78.2843H167.595V76.7461Z" fill="#E2EEFD"/>
<path d="M167.595 79.3477H162.839V80.8858H167.595V79.3477Z" fill="#E2EEFD"/>
<path d="M167.595 81.7109H162.839V83.2491H167.595V81.7109Z" fill="#E2EEFD"/>
<path d="M167.595 84.126H162.839V85.6642H167.595V84.126Z" fill="#E2EEFD"/>
<path d="M167.595 86.5703H162.839V88.1085H167.595V86.5703Z" fill="#E2EEFD"/>
<path d="M167.595 88.9404H162.839V90.4786H167.595V88.9404Z" fill="#E2EEFD"/>
<path d="M176.4 68.1641H171.303V69.7022H176.4V68.1641Z" fill="#E2EEFD"/>
<path d="M176.4 70.5273H171.303V72.0655H176.4V70.5273Z" fill="#E2EEFD"/>
<path d="M176.4 72.9346H171.303V74.4728H176.4V72.9346Z" fill="#E2EEFD"/>
<path d="M176.4 75.3867H171.303V76.9249H176.4V75.3867Z" fill="#E2EEFD"/>
<path d="M176.4 77.75H171.303V79.2882H176.4V77.75Z" fill="#E2EEFD"/>
<path d="M176.4 80.2168H171.303V81.755H176.4V80.2168Z" fill="#E2EEFD"/>
<path d="M176.4 82.5801H171.303V84.1183H176.4V82.5801Z" fill="#E2EEFD"/>
<path d="M176.4 84.9951H171.303V86.5333H176.4V84.9951Z" fill="#E2EEFD"/>
<path d="M176.4 87.4395H171.303V88.9776H176.4V87.4395Z" fill="#E2EEFD"/>
<path d="M176.4 89.8096H171.303V91.3478H176.4V89.8096Z" fill="#E2EEFD"/>
<path d="M176.4 92.5225H171.303V94.0606H176.4V92.5225Z" fill="#E2EEFD"/>
<path d="M176.4 94.8857H171.303V96.4239H176.4V94.8857Z" fill="#E2EEFD"/>
<path d="M176.4 97.293H171.303V98.8312H176.4V97.293Z" fill="#E2EEFD"/>
<path d="M176.4 99.7451H171.303V101.283H176.4V99.7451Z" fill="#E2EEFD"/>
<path d="M176.4 102.108H171.303V103.647H176.4V102.108Z" fill="#E2EEFD"/>
<path d="M205.537 67.4727H196.248V69.9991H205.537V67.4727Z" fill="#E2EEFD"/>
<path d="M205.537 71.3594H196.248V73.8859H205.537V71.3594Z" fill="#E2EEFD"/>
<path d="M205.537 75.335H196.248V77.8614H205.537V75.335Z" fill="#E2EEFD"/>
<path d="M205.537 79.3691H196.248V81.8956H205.537V79.3691Z" fill="#E2EEFD"/>
<path d="M205.537 83.2637H196.248V85.7902H205.537V83.2637Z" fill="#E2EEFD"/>
<path d="M89.6229 67.1533H84.5254V68.6915H89.6229V67.1533Z" fill="#E2EEFD"/>
<path d="M89.6229 69.5166H84.5253V71.0548H89.6229V69.5166Z" fill="#E2EEFD"/>
<path d="M89.6229 71.9316H84.5253V73.4698H89.6229V71.9316Z" fill="#E2EEFD"/>
<path d="M89.6229 74.3838H84.5253V75.922H89.6229V74.3838Z" fill="#E2EEFD"/>
<path d="M89.6229 76.7461H84.5253V78.2843H89.6229V76.7461Z" fill="#E2EEFD"/>
<path d="M89.6236 79.3477H84.5261V80.8858H89.6236V79.3477Z" fill="#E2EEFD"/>
<path d="M89.6229 81.7109H84.5253V83.2491H89.6229V81.7109Z" fill="#E2EEFD"/>
<path d="M89.6229 84.126H84.5253V85.6642H89.6229V84.126Z" fill="#E2EEFD"/>
<path d="M89.6229 86.5703H84.5253V88.1085H89.6229V86.5703Z" fill="#E2EEFD"/>
<path d="M89.6229 88.9404H84.5253V90.4786H89.6229V88.9404Z" fill="#E2EEFD"/>
<path d="M98.9563 68.1641H93.1603V69.7022H98.9563V68.1641Z" fill="#E2EEFD"/>
<path d="M98.9558 70.5273H93.1597V72.0655H98.9558V70.5273Z" fill="#E2EEFD"/>
<path d="M98.9558 72.9346H93.1597V74.4728H98.9558V72.9346Z" fill="#E2EEFD"/>
<path d="M98.9558 75.3867H93.1597V76.9249H98.9558V75.3867Z" fill="#E2EEFD"/>
<path d="M98.9558 77.75H93.1597V79.2882H98.9558V77.75Z" fill="#E2EEFD"/>
<path d="M98.9563 80.2168H93.1603V81.755H98.9563V80.2168Z" fill="#E2EEFD"/>
<path d="M98.9558 82.5801H93.1597V84.1183H98.9558V82.5801Z" fill="#E2EEFD"/>
<path d="M98.9558 84.9951H93.1597V86.5333H98.9558V84.9951Z" fill="#E2EEFD"/>
<path d="M98.9558 87.4395H93.1597V88.9776H98.9558V87.4395Z" fill="#E2EEFD"/>
<path d="M98.9558 89.8096H93.1597V91.3478H98.9558V89.8096Z" fill="#E2EEFD"/>
<path d="M98.9563 92.5225H93.1603V94.0606H98.9563V92.5225Z" fill="#E2EEFD"/>
<path d="M98.9558 94.8857H93.1597V96.4239H98.9558V94.8857Z" fill="#E2EEFD"/>
<path d="M98.9558 97.293H93.1597V98.8312H98.9558V97.293Z" fill="#E2EEFD"/>
<path d="M98.9558 99.7451H93.1597V101.283H98.9558V99.7451Z" fill="#E2EEFD"/>
<path d="M98.9558 102.108H93.1597V103.647H98.9558V102.108Z" fill="#E2EEFD"/>
<path d="M86.8808 58.548C86.8808 58.548 88.5602 55.7763 92.5654 56.0884C92.5654 56.0884 98.3838 51.4739 104.596 55.4717C104.596 55.4717 111.195 54.4834 116.084 56.3262C119.346 57.5597 120.416 58.8527 120.416 58.8527L86.8808 58.548Z" fill="#F8FCFF"/>
<path d="M122.758 66.3431C122.758 66.3431 123.843 64.4631 126.443 64.6712C126.443 64.6712 130.218 61.5354 134.238 64.2551C134.238 64.2551 138.511 63.5789 141.684 64.8421C143.794 65.6818 144.493 66.5586 144.493 66.5586L122.758 66.3431Z" fill="#F8FCFF"/>
<path d="M153.424 58.0285C153.424 58.0285 154.413 56.1931 156.783 56.4011C156.783 56.4011 160.216 53.3471 163.88 55.9924C163.88 55.9924 167.773 55.3385 170.657 56.5572C172.581 57.3746 173.213 58.2291 173.213 58.2291L153.424 58.0285Z" fill="#F8FCFF"/>
<path d="M218.66 130.842V130.954C218.66 131.102 218.541 131.221 218.407 131.221L53.6283 130.672L3.0838 130.501L0.252648 130.493C0.111463 130.493 0 130.374 0 130.226V130.114C0 129.966 0.118893 129.847 0.252648 129.847L3.0838 129.854L206.8 130.538L218.407 130.575C218.548 130.575 218.66 130.701 218.66 130.842Z" fill="#2E3552"/>
<path d="M161.977 11.043H159.406V127.821H161.977V11.043Z" fill="#AEC3FF"/>
<path d="M164.32 129.734C164.32 129.734 163.357 130.583 160.685 130.583C158.165 130.583 157.05 129.734 157.05 129.734V102.29C157.05 100.391 158.583 98.8584 160.483 98.8584H160.723C162.711 98.8584 164.332 100.467 164.332 102.468V129.734H164.32Z" fill="#9DB0F4"/>
<path d="M165.093 36.2201H156.266C155.291 36.2201 154.505 35.435 154.505 34.4598V1.76035C154.505 0.785191 155.291 0 156.266 0H165.093C166.068 0 166.853 0.785191 166.853 1.76035V34.4598C166.866 35.435 166.068 36.2201 165.093 36.2201Z" fill="#AEC3FF"/>
<path d="M161.858 22.3858C164.4 21.7695 165.961 19.2091 165.345 16.667C164.728 14.1249 162.168 12.5637 159.626 13.18C157.084 13.7963 155.523 16.3567 156.139 18.8988C156.755 21.4409 159.316 23.0021 161.858 22.3858Z" fill="#9DB0F4"/>
<path d="M165.422 29.3358C165.874 26.7591 164.151 24.3041 161.575 23.8524C158.998 23.4006 156.543 25.1231 156.091 27.6998C155.639 30.2764 157.362 32.7315 159.939 33.1832C162.515 33.635 164.97 31.9124 165.422 29.3358Z" fill="#9DB0F4"/>
<path d="M165.416 7.70376C165.841 5.12266 164.093 2.68567 161.512 2.26059C158.931 1.83551 156.494 3.58331 156.069 6.1644C155.643 8.7455 157.391 11.1825 159.972 11.6076C162.553 12.0327 164.99 10.2849 165.416 7.70376Z" fill="#F99746"/>
<path d="M48.4419 121.958H155.063L191.068 118.716C191.068 118.716 184.622 102.657 182.874 102.417C181.114 102.176 51.8232 102.417 51.8232 102.417L48.4419 121.958Z" fill="#1D2949"/>
<path d="M206.455 120.375C203.796 121.464 187.763 121.705 187.763 121.705C187.763 121.705 188.13 102.05 171.603 104.342C155.076 106.634 157.976 122.946 157.976 122.946L78.5451 124.364C78.5451 124.364 79.8369 103.645 62.2967 105.824C47.7327 107.635 51.4687 124.288 51.4687 124.288C43.946 124.681 39.9188 123.541 37.7785 122.363C36.1828 120.109 37.1073 118.792 37.2086 118.551C37.2972 118.323 36.9806 114.473 36.93 113.929C36.9046 113.612 37.5758 112.814 38.1837 112.181C38.6776 111.662 38.703 110.851 38.2597 110.294L37.4619 109.319C36.55 108.205 36.3474 106.672 36.93 105.355L38.513 101.746C43.6547 92.9059 84.0162 90.487 84.0162 90.487C90.1457 86.9663 95.2241 84.3448 99.2008 82.4451C105.546 79.4057 112.777 76.4549 119.768 75.7584C138.714 73.884 154.291 76.0116 158.103 76.6322C162.561 77.3541 185.002 87.1183 186.686 87.9668C188.371 88.8153 202.15 89.9551 203.91 90.1704C205.683 90.3857 205.632 92.1587 205.632 92.1587L205.873 93.7291L206.797 99.7067L207.025 101.163C208.317 101.809 208.317 103.645 208.317 103.645C208.317 103.645 209.102 119.286 206.455 120.375Z" fill="#739AF0"/>
<path d="M73.2899 127.369C78.0674 122.592 78.0674 114.846 73.2899 110.068C68.5123 105.291 60.7664 105.291 55.9888 110.068C51.2113 114.846 51.2113 122.592 55.9888 127.369C60.7664 132.147 68.5123 132.147 73.2899 127.369Z" fill="#2C3A64"/>
<path d="M64.6393 128.278C59.3709 128.278 55.0777 123.984 55.0777 118.716C55.0777 113.448 59.3709 109.154 64.6393 109.154C69.9077 109.154 74.2009 113.448 74.2009 118.716C74.2009 123.984 69.9203 128.278 64.6393 128.278ZM64.6393 110.028C59.8522 110.028 55.9642 113.916 55.9642 118.703C55.9642 123.49 59.8648 127.378 64.6393 127.378C69.4264 127.378 73.3144 123.49 73.3144 118.703C73.3144 113.916 69.4264 110.028 64.6393 110.028Z" fill="#AFCDFB"/>
<path d="M66.2735 127.847H62.8541L63.9432 118.45L62.6895 109.534L66.6028 109.775L65.2983 118.45L66.2735 127.847Z" fill="#AFCDFB"/>
<path d="M57.5354 124.681L55.813 121.705L64.5008 117.969L71.6056 112.422L73.3532 115.93L65.1847 119.134L57.5354 124.681Z" fill="#AFCDFB"/>
<path d="M56.155 115.17L58.042 112.308L65.286 118.387L73.4292 122.236L71.0736 125.377L64.5388 119.526L56.155 115.17Z" fill="#AFCDFB"/>
<path d="M61.4361 118.703C61.4361 116.943 62.8672 115.512 64.6276 115.512C66.3879 115.512 67.819 116.943 67.819 118.703C67.819 120.464 66.3879 121.895 64.6276 121.895C62.8672 121.895 61.4361 120.464 61.4361 118.703Z" fill="#AFCDFB"/>
<path d="M185.014 121.55C186.567 114.974 182.495 108.385 175.919 106.832C169.344 105.28 162.755 109.352 161.202 115.927C159.649 122.503 163.721 129.092 170.297 130.644C176.872 132.197 183.461 128.125 185.014 121.55Z" fill="#2C3A64"/>
<path d="M173.098 128.278C167.829 128.278 163.536 123.984 163.536 118.716C163.536 113.448 167.829 109.154 173.098 109.154C178.366 109.154 182.659 113.448 182.659 118.716C182.659 123.984 178.366 128.278 173.098 128.278ZM173.098 110.028C168.311 110.028 164.423 113.916 164.423 118.703C164.423 123.49 168.323 127.378 173.098 127.378C177.872 127.378 181.773 123.49 181.773 118.703C181.773 113.916 177.885 110.028 173.098 110.028Z" fill="#AFCDFB"/>
<path d="M174.732 127.847H171.3L172.401 118.45L171.148 109.534L175.061 109.775L173.757 118.45L174.732 127.847Z" fill="#AFCDFB"/>
<path d="M165.979 124.681L164.27 121.705L172.957 117.969L180.05 112.422L181.797 115.93L173.629 119.134L165.979 124.681Z" fill="#AFCDFB"/>
<path d="M164.612 115.17L166.499 112.308L173.743 118.387L181.886 122.236L179.53 125.377L172.996 119.526L164.612 115.17Z" fill="#AFCDFB"/>
<path d="M169.88 118.703C169.88 116.943 171.311 115.512 173.071 115.512C174.831 115.512 176.262 116.943 176.262 118.703C176.262 120.464 174.831 121.895 173.071 121.895C171.311 121.895 169.88 120.464 169.88 118.703Z" fill="#AFCDFB"/>
<path d="M52.8239 102.848L49.6832 106.255C49.2273 106.749 48.594 107.027 47.9355 107.027H38.3106C37.7407 107.027 37.3861 106.419 37.6647 105.925L37.9433 105.431C38.2852 104.824 38.7032 104.279 39.1844 103.798C40.5268 102.468 42.3758 101.695 44.3135 101.695H52.3174C52.9253 101.683 53.2419 102.405 52.8239 102.848Z" fill="#AFCDFB"/>
<path d="M42.6035 118.716H39.868C38.9688 118.716 38.133 119.21 37.6897 119.995L37.6011 120.16C37.5124 120.324 37.6264 120.539 37.829 120.539H41.1217C41.3497 120.539 41.565 120.451 41.717 120.274L42.7935 119.108C42.9201 118.956 42.8061 118.716 42.6035 118.716Z" fill="#1D2949"/>
<path d="M174.857 89.3088L134.027 90.284C133.23 90.3093 132.571 89.6634 132.571 88.8656V79.4559C132.571 78.7214 133.179 78.1135 133.913 78.1262C151.327 78.3668 157.292 78.848 160.863 80.0892C164.017 81.1783 171.4 85.6615 175.212 87.9284C175.858 88.2957 175.605 89.2835 174.857 89.3088Z" fill="#AFCDFB"/>
<path d="M129.013 78.0511C129.671 78.0637 130.317 78.0637 130.963 78.0764V90.3482L91.5767 91.2854C91.0575 91.298 90.8548 90.6268 91.2727 90.3482C95.8699 87.2454 111.282 77.8484 129.013 78.0511Z" fill="#AFCDFB"/>
<path d="M174.718 89.3093H174.692V87.5996C174.832 87.6883 174.971 87.7642 175.098 87.8402C175.782 88.2455 175.503 89.284 174.718 89.3093Z" fill="#AFCDFB"/>
<path d="M132.558 90.842L127.746 90.4621L128.062 77.3418H132.558V90.842Z" fill="#739AF0"/>
<path d="M163.118 90.8414H160.863V79.0635L163.118 80.4059V90.8414Z" fill="#739AF0"/>
<path d="M96.4775 87.1562L97.6806 91.1329L91.1078 91.2848C90.7279 91.2975 90.5633 90.8036 90.8672 90.5756C92.3616 89.5245 95.1098 87.6248 96.4775 87.1562Z" fill="#2C3A64"/>
<path d="M90.8293 91.6271C90.5634 91.6271 90.3228 91.4625 90.2468 91.1965C90.1581 90.9306 90.2594 90.6519 90.4747 90.5L90.614 90.4113C90.7534 90.31 90.918 90.2087 91.0953 90.082C91.2346 89.9807 91.3992 89.8794 91.5639 89.7781L91.8172 89.6135C92.0071 89.4868 92.2098 89.3602 92.4124 89.2209C92.5644 89.1195 92.7163 89.0309 92.881 88.9296L92.9063 88.9169C92.9316 88.9043 92.957 88.8916 92.9823 88.8789C93.1216 88.7903 93.2609 88.7016 93.4129 88.613L93.4509 88.5876C93.5015 88.5623 93.5522 88.5243 93.6029 88.499C93.6788 88.4483 93.7548 88.4103 93.8308 88.3597C93.9448 88.2964 94.0461 88.233 94.1601 88.1571C94.4767 87.9671 94.8186 87.7645 95.1732 87.5618C95.2872 87.4985 95.3885 87.4352 95.5025 87.3719C95.7305 87.2452 95.9584 87.1186 96.1864 86.9793L96.351 86.8906C96.8196 86.6247 97.3009 86.3714 97.7821 86.1181L97.9341 86.0421C98.0101 86.0041 98.0734 85.9661 98.1494 85.9281C99.0485 85.4595 99.9857 84.991 100.91 84.5477L101.201 84.4084C101.493 84.2691 101.784 84.1298 102.088 84.0031C102.189 83.9525 102.291 83.9145 102.392 83.8638C102.595 83.7752 102.797 83.6865 103 83.5979L103.304 83.4586C103.608 83.3193 103.937 83.1799 104.304 83.028C104.494 82.952 104.684 82.876 104.874 82.7874C106.166 82.2555 107.47 81.7615 108.775 81.3056L109.053 81.2043C109.155 81.1663 109.269 81.1283 109.37 81.0903L109.775 80.951C109.889 80.913 109.991 80.875 110.105 80.837H110.117C110.231 80.799 110.345 80.7611 110.459 80.7231C110.674 80.6597 110.877 80.5838 111.092 80.5204C111.232 80.4698 111.384 80.4318 111.523 80.3811C111.751 80.3178 111.966 80.2418 112.194 80.1785L112.574 80.0772C112.815 80.0139 113.043 79.9379 113.283 79.8745C113.752 79.7479 114.233 79.6213 114.702 79.5073L114.727 79.4946C114.765 79.482 114.816 79.4693 114.854 79.4693C115.056 79.4186 115.259 79.368 115.474 79.3173C115.601 79.292 115.715 79.254 115.842 79.2287L115.93 79.2033C116.019 79.178 116.12 79.1653 116.209 79.14C116.335 79.1147 116.462 79.0894 116.576 79.0514C116.703 79.026 116.829 79.0007 116.956 78.9754C117.083 78.95 117.209 78.9247 117.336 78.8994C117.463 78.8741 117.589 78.8487 117.716 78.8234H117.741C117.855 78.7981 117.982 78.7727 118.096 78.7474C118.21 78.7221 118.336 78.6968 118.45 78.6841C118.59 78.6588 118.716 78.6334 118.856 78.6081C118.944 78.5954 119.033 78.5828 119.122 78.5574L119.248 78.5321C119.502 78.4941 119.767 78.4435 120.021 78.4055C120.147 78.3801 120.274 78.3675 120.413 78.3422H120.439C120.667 78.3042 120.895 78.2788 121.123 78.2408C121.553 78.1775 121.971 78.1269 122.389 78.0762H122.414C122.528 78.0635 122.655 78.0509 122.769 78.0382C122.845 78.0255 122.934 78.0255 123.022 78.0129C123.111 78.0002 123.2 77.9876 123.288 77.9876C123.389 77.9749 123.491 77.9622 123.579 77.9622C123.706 77.9496 123.845 77.9369 123.985 77.9242C124.111 77.9116 124.238 77.8989 124.365 77.8989C124.466 77.8862 124.567 77.8862 124.669 77.8736L125.238 77.8356C125.352 77.8229 125.466 77.8229 125.58 77.8103H125.631C125.758 77.7976 125.884 77.7976 126.011 77.7849C126.112 77.7849 126.214 77.7723 126.315 77.7723H126.328C126.416 77.7723 126.505 77.7596 126.594 77.7596L126.822 77.7469C126.91 77.7469 126.999 77.7469 127.087 77.7343C127.442 77.7216 127.771 77.8482 128.012 78.1015C128.265 78.3422 128.405 78.6714 128.405 79.0134V89.1829C128.405 90.0314 127.721 90.7279 126.872 90.7533L90.8673 91.6018C90.842 91.6271 90.8293 91.6271 90.8293 91.6271ZM96.769 87.3592L96.541 87.4858C96.2877 87.6252 96.0344 87.7771 95.7811 87.9164C95.6671 87.9798 95.5532 88.0431 95.4518 88.1064C95.0972 88.309 94.768 88.5117 94.4514 88.7016C94.3374 88.7649 94.2361 88.8283 94.1221 88.9043C94.0461 88.9549 93.9701 88.9929 93.8941 89.0436C93.8435 89.0689 93.7928 89.1069 93.7548 89.1322L93.7168 89.1575C93.5649 89.2462 93.4256 89.3348 93.2862 89.4235L93.1976 89.4742C93.0329 89.5755 92.881 89.6768 92.729 89.7654C92.5137 89.9047 92.3237 90.0314 92.1338 90.1454L91.8805 90.31C91.7158 90.424 91.5639 90.5253 91.4246 90.6139C91.2473 90.7279 91.0953 90.8419 90.956 90.9306L90.8927 90.9812L97.6555 90.8166L126.822 90.12C127.315 90.1074 127.721 89.6894 127.721 89.1955V79.026C127.721 78.8487 127.657 78.6841 127.531 78.5701C127.404 78.4435 127.239 78.3801 127.062 78.3928C126.974 78.3928 126.885 78.3928 126.796 78.4055L126.568 78.4181C126.48 78.4181 126.391 78.4308 126.302 78.4308H126.29C126.188 78.4308 126.087 78.4435 125.986 78.4435C125.859 78.4435 125.732 78.4561 125.618 78.4688H125.568C125.454 78.4688 125.352 78.4815 125.238 78.4941L124.669 78.5321C124.567 78.5448 124.479 78.5448 124.377 78.5574C124.238 78.5701 124.111 78.5828 123.997 78.5828C123.858 78.5954 123.731 78.6081 123.605 78.6208C123.503 78.6334 123.402 78.6334 123.313 78.6461C123.225 78.6588 123.136 78.6588 123.048 78.6714C122.959 78.6841 122.87 78.6841 122.794 78.6968C122.68 78.7094 122.566 78.7221 122.44 78.7348H122.414C121.996 78.7854 121.578 78.8361 121.161 78.8994C120.933 78.9247 120.705 78.9627 120.489 79.0007H120.477C120.35 79.026 120.223 79.0387 120.097 79.064C119.843 79.102 119.59 79.1527 119.337 79.1907L119.21 79.216C119.122 79.2287 119.033 79.2413 118.957 79.2667C118.818 79.292 118.691 79.3173 118.552 79.3426C118.438 79.368 118.311 79.3933 118.197 79.406C118.083 79.4313 117.956 79.4566 117.842 79.4819H117.817C117.691 79.5073 117.564 79.5326 117.45 79.5579C117.323 79.5833 117.197 79.6086 117.07 79.6339C116.943 79.6593 116.817 79.6846 116.703 79.7099C116.576 79.7352 116.449 79.7606 116.335 79.7986C116.247 79.8239 116.145 79.8365 116.057 79.8619L115.968 79.8872C115.842 79.9125 115.728 79.9379 115.601 79.9759C115.398 80.0265 115.196 80.0772 114.993 80.1278C114.955 80.1405 114.917 80.1532 114.879 80.1532L114.854 80.1658C114.385 80.2798 113.904 80.4065 113.448 80.5331C113.207 80.5964 112.979 80.6597 112.751 80.7231L112.384 80.8244C112.169 80.8877 111.941 80.951 111.726 81.027C111.586 81.065 111.434 81.1157 111.295 81.1536C111.08 81.217 110.877 81.2803 110.674 81.3563C110.56 81.3943 110.446 81.4323 110.332 81.4703H110.32C110.206 81.5083 110.105 81.5462 109.991 81.5716L109.585 81.7109C109.484 81.7489 109.37 81.7869 109.269 81.8249L108.99 81.9262C107.698 82.3694 106.394 82.876 105.127 83.3952C104.937 83.4712 104.748 83.5472 104.558 83.6359C104.19 83.7878 103.874 83.9271 103.57 84.0665L103.266 84.2058C103.063 84.2944 102.861 84.3831 102.658 84.4717C102.557 84.5224 102.455 84.5604 102.367 84.611C102.063 84.7503 101.771 84.877 101.493 85.0163L101.201 85.1556C100.277 85.5989 99.3651 86.0548 98.466 86.5234C98.39 86.5613 98.3267 86.5993 98.2507 86.6373L98.0987 86.7133C97.6301 86.8906 97.1995 87.1312 96.769 87.3592Z" fill="#1D2949"/>
<path d="M163.789 89.9043C163.548 89.9043 163.32 89.8157 163.143 89.6384C162.94 89.4484 162.826 89.1698 162.826 88.8785V82.0144C162.826 81.6218 162.889 81.1279 163.206 80.9253C163.497 80.748 163.979 80.8746 164.27 81.0266C164.612 81.1912 164.84 81.3052 164.966 81.3812C164.979 81.3939 165.004 81.3939 165.017 81.4065L165.156 81.4825C166.866 82.4197 169.298 83.8888 172.4 85.8517C172.527 85.9404 172.666 86.0164 172.793 86.105C173.11 86.3077 173.414 86.4976 173.705 86.6876L174.794 87.3841C174.984 87.5108 175.161 87.6247 175.339 87.7387C175.364 87.7514 175.389 87.7767 175.415 87.7894L175.44 87.802C175.807 88.0427 175.959 88.4859 175.845 88.9165C175.731 89.3218 175.389 89.6004 174.984 89.6131H174.87L163.827 89.9043C163.801 89.9043 163.801 89.9043 163.789 89.9043ZM163.852 81.4952C163.763 81.4952 163.687 81.5332 163.637 81.5585C163.485 81.6472 163.396 81.8245 163.396 82.0144V88.8785C163.396 89.0178 163.447 89.1318 163.535 89.2205C163.611 89.2964 163.7 89.3218 163.789 89.3218L174.946 89.0305C175.174 89.0305 175.25 88.8152 175.263 88.7519C175.301 88.5999 175.288 88.3846 175.098 88.2706L175.073 88.258C175.047 88.2453 175.022 88.22 174.997 88.2073C174.819 88.0933 174.642 87.9794 174.452 87.8527L173.363 87.1562C173.072 86.9662 172.768 86.7762 172.451 86.5736C172.324 86.4849 172.198 86.409 172.059 86.3203C168.981 84.3573 166.549 82.9009 164.852 81.9638L164.713 81.8878C164.7 81.8751 164.688 81.8751 164.675 81.8625C164.549 81.7991 164.321 81.6725 163.991 81.5205C163.966 81.5078 163.903 81.4952 163.852 81.4952Z" fill="#1D2949"/>
<path d="M96.4775 87.1562L97.6806 91.1329L91.1078 91.2848C90.7279 91.2975 90.5633 90.8036 90.8672 90.5756C92.3616 89.5245 95.1098 87.6248 96.4775 87.1562Z" fill="#2C3A64"/>
<path d="M133.99 90.6005C133.534 90.6005 133.103 90.4232 132.774 90.1066C132.432 89.7774 132.242 89.3341 132.242 88.8528V79.4432C132.242 79 132.42 78.582 132.736 78.2654C133.053 77.9488 133.471 77.7842 133.914 77.7842C151.885 78.0375 157.444 78.4427 160.978 79.7725L161.18 79.8485V89.942L134.028 90.5879C134.015 90.6005 134.003 90.6005 133.99 90.6005ZM133.889 78.4427C133.623 78.4427 133.369 78.544 133.179 78.734C132.989 78.924 132.875 79.1773 132.875 79.4432V88.8528C132.875 89.1568 132.989 89.4354 133.205 89.638C133.42 89.8533 133.699 89.9547 134.003 89.9547L160.534 89.3214V80.3044C157.102 79.0886 151.213 78.6834 133.901 78.4427C133.901 78.4427 133.901 78.4427 133.889 78.4427Z" fill="#1D2949"/>
<path d="M206.785 99.669H199.098C197.958 99.669 196.869 99.1498 196.172 98.2506L193.26 94.5526C192.981 94.198 193.234 93.6914 193.677 93.6914H205.861L206.785 99.669Z" fill="#A9453D"/>
<path d="M130.624 77.969L130.148 119.162L130.465 119.166L130.94 77.9726L130.624 77.969Z" fill="#1D2949"/>
<path d="M157.851 118.542L78.3854 120.132L78.3917 120.448L157.857 118.858L157.851 118.542Z" fill="#1D2949"/>
<path d="M125.897 98.8838C125.897 99.3144 123.959 99.669 121.553 99.669C119.147 99.669 117.209 99.3144 117.209 98.8838C117.209 98.4532 119.147 98.0986 121.553 98.0986C123.959 98.0986 125.897 98.4406 125.897 98.8838Z" fill="#2C3A64"/>
<path d="M166.334 98.8838C166.334 99.3144 164.396 99.669 161.99 99.669C159.597 99.669 157.646 99.3144 157.646 98.8838C157.646 98.4532 159.584 98.0986 161.99 98.0986C164.384 98.0986 166.334 98.4406 166.334 98.8838Z" fill="#2C3A64"/>
<path d="M154.759 118.729L154.443 118.716C154.67 114.626 155.874 111.168 158.052 108.458C159.787 106.293 162.142 104.583 165.03 103.405C169.437 101.607 173.794 101.556 174.693 101.569V89.3223H175.009V101.898L174.845 101.885C174.794 101.885 169.994 101.708 165.131 103.696C162.294 104.861 159.99 106.533 158.28 108.661C156.165 111.308 154.974 114.702 154.759 118.729Z" fill="#1D2949"/>
<path d="M88.0687 120.084C87.9421 109.459 88.5373 102.113 89.0566 97.8075C89.6138 93.147 90.2217 90.9687 90.2217 90.9434L90.5256 91.032C90.5003 91.1207 88.1447 99.7958 88.3854 120.071L88.0687 120.084Z" fill="#1D2949"/>
<path d="M133.913 77.9492H127.619V78.2658H133.913V77.9492Z" fill="#1D2949"/>
<path d="M43.9209 107.014H38.3106C37.7407 107.014 37.3861 106.406 37.6647 105.912L37.9433 105.418C38.2852 104.81 38.7032 104.265 39.1844 103.784L42.5785 104.341L41.236 105.81L42.8444 106.14L43.9209 107.014Z" fill="#2C3A64"/>
<path d="M42.1092 97.9465C41.9826 97.9465 41.856 97.8832 41.7673 97.7692C41.628 97.5793 41.6787 97.326 41.8686 97.1867C41.8939 97.1613 42.5525 96.7054 44.6674 95.4136C46.8837 94.0586 49.0113 93.7799 50.4044 93.6913C51.2656 93.628 52.1141 92.3869 52.6207 91.6397C52.8107 91.361 52.95 91.1457 53.0766 91.0064C53.2792 90.7911 53.4819 90.5632 68.8438 90.2719C76.3537 90.1326 85.6114 90.0439 83.9777 90.0439H85.6874C85.9154 90.0439 85.928 90.5885 85.966 90.8165C86.4726 93.59 83.4711 92.2096 83.2305 92.2096C71.7692 92.3362 55.1789 91.3104 53.6212 91.6397C53.5325 91.7536 53.4185 91.9183 53.2919 92.1082C52.6587 93.0327 51.7089 94.4385 50.4424 94.5271C49.1253 94.6158 47.137 94.8817 45.0727 96.1355C42.9958 97.402 42.3245 97.8705 42.3245 97.8832C42.2865 97.9212 42.1979 97.9465 42.1092 97.9465Z" fill="#739AF0"/>
<path d="M102.342 92.8302H97.238C96.3262 92.8302 95.5663 92.083 95.5663 91.1585V89.7655C95.5663 88.8536 96.3135 88.0938 97.238 88.0938H102.342C103.254 88.0938 104.013 88.841 104.013 89.7655V91.1585C104.013 92.083 103.266 92.8302 102.342 92.8302Z" fill="#6390E0"/>
<path d="M68.0448 73.3652C68.3487 74.2011 68.8933 75.1636 69.4505 75.4042C70.0964 75.6828 70.3624 76.0628 70.3624 76.0628L70.8816 75.7588L71.5022 75.4042C71.5022 75.4042 71.4895 75.3409 71.4515 75.2269C71.4262 75.1129 71.3755 74.961 71.3122 74.7837C71.3122 74.7837 71.1222 74.543 71.2362 74.2391C71.3502 73.9351 71.3249 73.4666 71.1349 73.1753C70.9323 72.884 70.7423 72.1748 70.6283 72.2001C70.337 72.2508 70.7676 73.2259 70.641 73.4032C70.527 73.5679 70.3877 73.5045 70.3624 73.4919C69.5519 73.1373 68.5767 71.2123 68.1334 71.4783C67.9815 71.5796 67.9182 73.0106 68.0448 73.3652Z" fill="#FFB27D"/>
<path d="M70.8435 74.5178L69.8304 75.227C69.7544 75.2776 69.6531 75.265 69.6024 75.189L67.0062 71.491C66.9556 71.415 66.9682 71.3137 67.0442 71.263L68.0574 70.5538C68.1334 70.5032 68.2347 70.5158 68.2853 70.5918L70.8815 74.2898C70.9322 74.3785 70.9195 74.4671 70.8435 74.5178Z" fill="#2B478B"/>
<path d="M69.9189 75.1765L69.3236 75.5944C69.273 75.6324 69.197 75.6198 69.159 75.5691L66.5121 71.8078C66.4741 71.7571 66.4868 71.6811 66.5375 71.6431L67.1327 71.2252C67.1834 71.1872 67.2593 71.1999 67.2973 71.2505L69.9442 75.0119C69.9822 75.0625 69.9695 75.1385 69.9189 75.1765Z" fill="#233862"/>
<path d="M85.3953 69.2236C85.3953 69.2236 80.2409 78.228 78.3665 79.8744L71.5024 74.758C71.5024 74.758 70.502 75.0619 70.0714 76.0624C70.0714 76.0624 74.2379 84.5475 78.3412 84.9148C82.4445 85.2694 88.2068 74.7326 88.2068 74.7326L85.3953 69.2236Z" fill="#233862"/>
<path d="M97.072 130.431H100.048C100.428 130.228 100.757 129.759 100.859 129.063C101.011 128.1 102.074 127.581 102.315 126.796C102.543 126.011 101.353 124.909 101.353 124.909L101.15 124.656L100.947 124.39L98.9717 124.858C98.9717 124.858 98.921 125.327 98.8957 125.935C98.8704 126.365 98.8577 126.872 98.883 127.302C98.9464 128.354 98.5918 129.481 97.6546 129.683C96.9707 129.81 97.0087 130.215 97.072 130.431Z" fill="#233862"/>
<path d="M79.7723 130.43H86.5857C86.915 130.025 86.7883 128.556 86.7377 128.075C86.725 127.973 86.725 127.923 86.725 127.923C86.725 127.923 84.3948 126.061 84.0782 127.492C84.0655 127.543 84.0528 127.581 84.0402 127.619C83.6349 128.948 81.8366 129.556 80.7854 129.721C80.1142 129.822 79.8609 130.177 79.7723 130.43Z" fill="#233862"/>
<path d="M81.0637 92.3745C81.0637 92.3745 81.4183 96.7817 81.8363 102.088C82.4062 109.294 83.0774 118.134 83.1534 119.806C83.2673 122.718 83.7359 127.366 83.7359 127.366C83.7359 127.366 84.8377 128.468 87.054 128.012C87.054 128.012 89.0296 121.363 89.5869 114.335C89.5995 114.221 89.5995 114.107 89.6122 113.993C90.1314 106.837 90.9546 91.7666 90.9546 91.7666L81.0637 92.3745Z" fill="#FFA25C"/>
<path d="M81.0637 92.3745C81.0637 92.3745 81.4183 96.7817 81.8363 102.088L89.5742 114.335C89.5869 114.221 89.5869 114.107 89.5995 113.993C90.1188 106.837 90.942 91.7666 90.942 91.7666L81.0637 92.3745Z" fill="#EF8C48"/>
<path d="M82.6847 92.8934C82.6847 92.8934 89.0549 108.863 93.2468 116.373C97.4387 123.883 98.7431 125.973 98.7431 125.973C98.7431 125.973 101.149 125.01 101.365 124.364C101.365 124.364 99.7563 109.876 96.9575 106.343C95.3744 104.342 93.5128 98.3517 93.4241 96.2621C93.3354 94.1725 92.8542 90.0186 92.8542 90.0186L82.6847 92.8934Z" fill="#FFA25C"/>
<path d="M84.2681 69.6166C86.763 70.4018 91.0689 68.2869 91.0689 68.2869C91.0689 68.2869 88.7767 66.5645 88.8906 62.9805L86.9656 64.5255L85.6612 65.5767C85.6612 65.5767 85.6612 66.1972 85.8132 67.2864C85.8512 67.5776 85.9018 67.8943 85.9525 68.2362C84.876 68.8314 84.2681 69.6166 84.2681 69.6166Z" fill="#FFB27D"/>
<path d="M85.6616 65.5763C85.6616 65.5763 85.6616 66.1968 85.8136 67.286C87.2573 67.0327 88.9037 64.6898 88.9037 64.6898C88.1692 64.4745 87.5233 64.4365 86.966 64.5125L85.6616 65.5763Z" fill="#ED975D"/>
<path d="M84.8885 65.5132C84.8885 65.5132 89.0045 66.1971 89.3844 63.6262C89.7643 61.0554 90.5622 59.4217 87.9533 58.8771C85.3445 58.3325 84.6859 59.2317 84.344 60.0549C84.0147 60.8907 83.8374 65.2726 84.8885 65.5132Z" fill="#FFB27D"/>
<path d="M80.7861 92.7414C80.8621 92.8047 80.9507 92.8427 81.052 92.8427C81.9892 92.83 84.712 93.3493 87.0169 93.1087C88.9673 92.9187 90.677 92.3488 92.526 91.5129C92.7666 91.399 93.3365 91.1077 93.3238 90.8291C93.3111 90.5251 93.2858 90.0945 93.2478 89.55C93.1212 87.6376 92.8932 84.3576 93.1085 80.5709C93.1465 79.8617 93.1718 79.1652 93.1718 78.4813C93.1972 73.3522 92.1714 68.831 90.1324 67.3113C89.9551 67.1847 88.8913 67.7039 87.9035 68.1978C86.9916 68.6411 86.0798 68.6917 85.2186 68.5271L84.3574 69.2869C83.3063 70.2621 82.1665 71.5792 81.6599 73.5928C81.242 75.3025 80.9887 78.38 80.8494 81.5714C80.7861 83.0151 80.7354 84.4715 80.7228 85.8646V85.9153C80.7101 86.0546 80.7101 86.2066 80.7101 86.3332C80.6848 89.8666 80.7354 92.6907 80.7861 92.7414Z" fill="#2B478B"/>
<path d="M93.2603 89.5502C93.1337 87.6379 92.9057 84.3578 93.121 80.5712C93.159 79.862 93.1843 79.1654 93.1843 78.4816C92.3358 76.4173 91.6393 74.9229 91.6393 74.9229H89.4863C89.4863 74.9102 87.9159 85.6623 93.2603 89.5502Z" fill="#233862"/>
<path d="M97.2872 89.9174C97.2872 89.9174 97.7684 90.5633 97.7811 90.8166C97.9077 92.5516 97.1226 92.7922 99.1742 93.7547C99.1742 93.7547 100.048 94.084 100.061 93.4128C100.073 92.7289 99.4528 92.7163 99.5668 91.7664C99.6934 90.6646 99.6807 90.652 98.9589 90.0821L98.4776 89.2969L97.2872 89.9174Z" fill="#FFB27D"/>
<path d="M98.5156 90.4112C97.7431 90.5632 96.9072 90.4999 96.9072 90.4999C96.9072 90.4999 94.615 83.4078 94.311 82.7619C94.0197 82.116 87.4976 74.4541 87.4976 74.4541L90.2204 67.6533C90.2204 67.6533 97.2745 79.4312 97.9964 81.0902C99.1742 83.8257 99.5921 89.9553 99.5921 89.9553C99.5921 89.9553 99.1235 90.2846 98.5156 90.4112Z" fill="#2B478B"/>
<path d="M89.3969 63.3857C89.3969 63.3857 88.979 63.3097 89.0423 62.7398C89.1057 62.1573 89.1057 61.3974 88.6371 61.5367C88.1685 61.676 88.1432 62.0559 87.9405 61.8406C87.7506 61.6254 87.7379 60.6882 86.3321 60.6249C84.9264 60.5615 84.3565 61.0555 83.698 60.7642C83.0394 60.4729 83.0141 59.4851 83.0141 59.4851C83.0141 59.4851 83.204 59.8397 83.4827 59.9537C83.4827 59.9537 82.3935 58.4593 83.66 57.4334C84.9264 56.4076 86.2055 57.0788 86.94 57.1295C88.5484 57.2308 89.5869 57.3195 90.1188 58.3833C90.6507 59.4344 90.4354 62.3726 89.3969 63.3857Z" fill="#2B478B"/>
<path d="M98.0469 90.6777C98.0469 90.6777 97.5784 91.159 97.553 91.3616C97.4644 92.0075 97.2491 92.2861 97.3504 92.3494C97.5783 92.5014 97.8696 92.0202 98.0089 91.5896C98.1609 91.1716 98.0469 90.6777 98.0469 90.6777Z" fill="#FFB27D"/>
</svg>
